# xmcd CD database file
#
# Track frame offsets:
#	150
#	25445
#	45255
#	70315
#	96995
#	118217
#	145967
#
# Disc length: 2177 seconds
#
# Revision: 4
# Processed by: cddbd v1.5.2PL0 Copyright (c) Steve Scherf et al.
# Submitted via: CDex 1.70beta2
#
DISCID=63087f07
DTITLE=Various Artist - Planeta Meditação 6 - Para Alcançar a Longevidade
DYEAR=1999
DGENRE=Meditative
TTITLE0=World of Osho and Mirna Grzich - Doorway to the Heart
TTITLE1=Jim Wilson - The Falcon
TTITLE2=John Doan - Where Horses of Faery Hide
TTITLE3=John Boswell - Glimpse of Time
TTITLE4=Bill Douglas - Deep Peace
TTITLE5=James Asher - Earthsong
TTITLE6=World of Osho - Doorway to the Heart
EXTD=YEAR: 1999
EXTT0=
EXTT1=
EXTT2=
EXTT3=
EXTT4=
EXTT5=
EXTT6=
PLAYORDER=
